<?xml version="1.0" encoding="utf-8"?>
<svg version="1.1" id="Слой_1" xmlns="http://www.w3.org/2000/svg" xmlns:xlink="http://www.w3.org/1999/xlink" x="0px" y="0px"
	 viewBox="0 0 601.2 592" style="enable-background:new 0 0 601.2 592;" xml:space="preserve" fill="#242424">
<g>
	<path d="M459.5,193.9c-1.9,0-3.9-0.6-5.5-1.8C359.8,121,330.9,15.9,329.7,11.5c-1.1-4.2,0.9-8.6,4.8-10.5
		c3.9-1.9,8.6-0.8,11.3,2.6c58.6,75.8,166,146.1,171.2,149.5c2.9,1.8,4.5,5.1,4.2,8.5c-0.4,3.8-3,6.9-6.6,7.9
		c-1,0.3-1.9,0.6-2.9,0.9l-48.2,22.7C462.2,193.6,460.9,193.9,459.5,193.9 M365.5,53.6c16.6,34.7,46.2,82.3,95.1,120.5l32.4-15.3
		C467.5,141.3,411.8,100.9,365.5,53.6"/>
	<path d="M570.7,308.5c-8,0-14.3-5.6-18.9-16.6c-2-4.9-3.1-9.8-4.1-14.5c-1-4.8-2-9.3-3.9-13.1
		c-4.7-9.2-14.1-16.6-22.4-23.2c-5.4-4.3-11.3-7.6-17-10.9c-9.5-5.4-19.3-10.9-26.8-20.8c-4.5-5.9-12.2-20.1-9.5-31.7
		c1.2-5.1,4.4-9.1,8.9-11.2l27.5-12.9c2.3-1.1,5-1.2,7.4-0.1c20.8,8.8,33.3,25.8,45.3,42.2c4,5.5,8.2,11.2,12.5,16.3
		c2.9,3.5,6.2,6.7,9.8,10.2c12,11.7,25.5,25,20.8,47.5C598.1,279.8,588.1,308.5,570.7,308.5 M485.7,182.6c-0.2,2.7,1.9,10,6.3,15.8
		c5.2,6.8,12.6,11,21.3,15.9c6.3,3.6,12.9,7.3,19.4,12.4c9.3,7.3,20.9,16.5,27.4,29.2c3,5.9,4.3,12.1,5.5,17.6
		c0.9,4.1,1.7,8,3.1,11.3c1,2.4,1.9,3.8,2.5,4.7c3.6-3.2,9.3-14.3,11.2-23.6c2.6-12.1-3.9-19.2-15.7-30.7
		c-3.7-3.6-7.4-7.3-10.9-11.5c-4.7-5.6-9.1-11.5-13.3-17.3c-10.2-14-20-27.2-34.1-34.6L485.7,182.6z"/>
	<path d="M344,592c-15,0-29.1-5.8-39.7-16.4l-261-261c-21.9-21.9-21.9-57.5,0-79.4L71.5,207c8.8-8.8,13.4-21.4,11-30.6
		c-1.6-6.1-6.1-10.5-13.6-13c-18.8,1.7-37-5-50.3-18.3C6.6,133.1,0,117.2,0,100.3c0-16.9,6.6-32.9,18.6-44.8
		c12-12,27.9-18.6,44.9-18.6s32.9,6.6,44.9,18.6c13.3,13.3,19.9,31.4,18.3,49.9c3.2,9.6,9.3,14.4,18.3,14.4
		c8.5,0,18.2-4.5,25.4-11.6l28-28C208.9,69.6,223,63.7,238,63.7c15,0,29.1,5.8,39.7,16.4l261,261c21.9,21.9,21.9,57.5,0,79.4
		L383.7,575.6C373.1,586.2,359,592,344,592 M69.8,145c0.9,0,1.7,0.1,2.5,0.4c14.6,4.2,24.5,13.6,27.8,26.5
		c4,15.6-2.2,34.5-15.8,48.1l-28.2,28.2c-14.8,14.8-14.8,38.8,0,53.6l261,261c7.1,7.1,16.7,11.1,26.8,11.1
		c10.1,0,19.6-3.9,26.8-11.1l155.1-155.1c14.8-14.8,14.8-38.8,0-53.6l-261-261C257.6,85.9,248.1,82,238,82
		c-10.1,0-19.6,3.9-26.8,11.1l-28,28c-10.6,10.6-25,17-38.3,17c-17.6,0-31.1-10.9-36.4-29.3c-0.3-1.1-0.4-2.4-0.3-3.5
		c1.6-13.7-3.1-27.1-12.9-36.9c-8.5-8.5-19.9-13.2-32-13.2c-12.1,0-23.4,4.7-32,13.2c-8.5,8.5-13.2,19.9-13.2,31.9
		c0,12.1,4.7,23.4,13.2,32c9.8,9.8,23.5,14.5,37.2,12.9C69.1,145,69.5,145,69.8,145"/>
	<path d="M63.4,137.1c-9.8,0-19-3.8-26-10.8c-14.4-14.4-14.4-37.7,0-52c7-7,16.2-10.8,26-10.8s19.1,3.8,26,10.8
		c7,7,10.8,16.2,10.8,26c0,9.8-3.9,19-10.8,26C82.5,133.2,73.2,137.1,63.4,137.1 M63.4,81.7c-5,0-9.6,1.9-13.1,5.4
		c-7.2,7.2-7.2,19,0,26.2c7,7,19.2,7,26.2,0c3.5-3.5,5.4-8.2,5.5-13.1c0-4.9-1.9-9.6-5.4-13.1C73,83.7,68.4,81.7,63.4,81.7"/>
	<path d="M300.2,424.2c-60.6,0-109.8-43.7-109.8-97.4c0-49.7,43.1-81.8,109.8-81.8S410,277.1,410,326.8
		C410,380.5,360.7,424.2,300.2,424.2 M300.2,263.2c-44.3,0-91.6,16.7-91.6,63.6c0,43.6,41.1,79.2,91.6,79.2
		c50.5,0,91.6-35.5,91.6-79.2C391.8,279.9,344.5,263.2,300.2,263.2"/>
	<path d="M249.6,329.1c-0.9,0-1.7-0.1-2.5-0.4c-3.4-1-5.9-3.8-6.5-7.2c-3.5-20.7,15.1-48.3,26.4-57.9
		c10.6-9,20.3-16.4,20.7-16.7c3.1-2.4,7.4-2.5,10.6-0.3c3.2,2.2,4.8,6.2,3.8,9.9c-6.9,25.9-41.7,65.2-45.6,69.6
		C254.6,328,252.1,329.1,249.6,329.1"/>
	<path d="M260.3,254.7c-23.8,0-48-3.5-49-3.7c-3.5-0.5-6.3-3-7.4-6.3c-1-3.3-0.1-7,2.5-9.4c12-11.2,33.7-12.4,42.5-12.4
		c7.7,0,14.9,0.9,20.3,2.4c13.3,3.8,24.9,7.8,25.3,8c3.7,1.3,6.2,4.8,6.1,8.7c0,3.9-2.5,7.4-6.2,8.6
		C286.3,253.3,275.2,254.7,260.3,254.7"/>
	<path d="M340.9,254.7c-23.8,0-48-3.5-49-3.7c-3.5-0.5-6.3-3-7.4-6.3c-1-3.3-0.1-7,2.5-9.4c12-11.2,33.7-12.4,42.5-12.4
		c7.7,0,14.9,0.9,20.3,2.4c13.3,3.8,24.9,7.8,25.3,8c3.7,1.3,6.2,4.8,6.1,8.7c0,3.9-2.5,7.4-6.2,8.6
		C366.9,253.3,355.7,254.7,340.9,254.7"/>
	<path d="M356,305.3c-0.5,0-1.1,0-1.6-0.1c-26.4-4.7-68.5-36.1-73.2-39.6c-2.8-2.1-4.1-5.6-3.4-9.1
		c0.7-3.4,3.3-6.2,6.7-7c2.6-0.7,5.4-1,8.4-1c18.9,0,42.1,13,51.5,22.4c8.2,8.1,15.2,15.7,17.6,18.3c2,1.7,3.3,4.2,3.3,7
		c0,5-4.1,9.1-9.1,9.1C356,305.3,356,305.3,356,305.3"/>
</g>
</svg>
