<?xml version="1.0" encoding="utf-8"?>
<svg version="1.1" id="Слой_1" xmlns="http://www.w3.org/2000/svg" xmlns:xlink="http://www.w3.org/1999/xlink" x="0px" y="0px"
	 viewBox="0 0 38 50" style="enable-background:new 0 0 38 50;" xml:space="preserve">
<g fill="none" stroke="#242424" stroke-width="2" stroke-linecap="round" stroke-linejoin="round" stroke-miterlimit="10">
	<path d="M7,16c-3.3,0-6-2.7-6-6c0-3.3,2.7-6,6-6"/>
	<path d="M7,16h25c2.8,0,5,2.2,5,5v23c0,2.8-2.2,5-5,5H7c-3.3,0-6-2.7-6-6V10"/>
	<path d="M27,4h5c2.8,0,5,2.2,5,5v5.8"/>
	<line x1="7" y1="4" x2="22" y2="4"/>
	<line x1="18" y1="8" x2="31.3" y2="8"/>
	<line x1="8.3" y1="8" x2="13" y2="8"/>
	<line x1="8.3" y1="12" x2="31.3" y2="12"/>
	<path d="M24.5,1C23.1,1,22,2.1,22,3.5V8h5V3.5C27,2.1,25.9,1,24.5,1z"/>
	<path d="M15.5,5C14.1,5,13,6.1,13,7.5V12h5V7.5C18,6.1,16.9,5,15.5,5z"/>
	<path d="M22.9,23.3C22.2,22,20.8,21,19.1,21c-1.7,0-3.1,1-3.8,2.3c0,0-0.1,0-0.1,0c-2.3,0-4.2,1.7-4.2,3.7
		c0,1.9,1.6,3.4,3.6,3.7l0.5,4.3c0,0.5,0.5,1,1,1H22c0.5,0,0.9-0.4,1-1l0.5-4.4c2-0.3,3.4-1.8,3.4-3.6C27,25,25.2,23.4,22.9,23.3z"
		/>
	<line x1="16" y1="39" x2="22" y2="39"/>
	<line x1="17" y1="42" x2="21" y2="42"/>
</g>
</svg>
