<svg class='visually-hidden' width='0' height='0' aria-hidden='true' focusable='false' xmlns="http://www.w3.org/2000/svg">
<defs>
  <symbol width="100%" height="100%" viewBox="0 0 624 486" id='icon-plate'>
    <g>
      <path d="M474,448.5H149.8c-1.9,0-3.7-0.6-5.3-1.7L3.9,347.3c-3.2-2.3-4.6-6.4-3.4-10.2c1.2-3.8,4.7-6.4,8.7-6.4h605.6
        c4,0,7.5,2.6,8.7,6.4c1.2,3.8-0.2,7.9-3.4,10.2l-140.7,99.5C477.8,447.9,475.9,448.5,474,448.5 M152.7,430.2h318.4L586,349H37.8
        L152.7,430.2z"/>
      <path d="M472.1,486H149.8c-5,0-9.1-4.1-9.1-9.1v-37.5c0-5,4.1-9.1,9.1-9.1h322.3c5,0,9.1,4.1,9.1,9.1v37.5
        C481.2,481.9,477.1,486,472.1,486 M158.9,467.7H463v-19.3H158.9V467.7z"/>
      <path d="M607.5,339.9c0,5-4.1,9.1-9.1,9.1c-5,0-9.1-4.1-9.1-9.1c0-101.4-82.5-183.9-183.9-183.9
        c-12.7,0-25.1,1.3-37,3.7c-6.1,1.3-12.1,2.9-18,4.7c-29,9.1-54.9,25.2-75.8,46.4c-4.3,4.3-8.3,8.9-12.2,13.7
        c-6.1,7.6-11.7,15.7-16.5,24.2c-3.1,5.3-5.9,10.8-8.4,16.5c-4.9,10.9-8.8,22.5-11.4,34.5c-2.3,9.9-3.7,20-4.2,30.4v0.1
        c-0.1,0.2-0.1,0.4-0.1,0.7c-0.2,3-0.2,6.1-0.2,9.1c0,5-4.1,9.1-9.1,9.1c-5,0-9.1-4.1-9.1-9.1c0-3,0.1-6.1,0.2-9.1
        c0.4-8.5,1.3-16.8,2.7-25c1.1-6.4,2.6-12.8,4.3-19.1c2.9-10.8,6.8-21.3,11.4-31.3c2.6-5.5,5.4-10.9,8.4-16.2
        c4.9-8.6,10.5-16.8,16.6-24.5c3.8-4.9,7.9-9.5,12.2-14c15.8-16.6,34.4-30.6,55-41.1c5.4-2.7,10.9-5.2,16.5-7.5
        c5.7-2.3,11.6-4.3,17.6-6.1c5.8-1.7,11.7-3.2,17.7-4.3c12.8-2.6,26-3.9,39.5-3.9C516.8,137.8,607.5,228.4,607.5,339.9"/>
      <path d="M537.6,349H273.2c-5,0-9.1-4.1-9.1-9.1c0-77.9,63.4-141.3,141.3-141.3S546.7,262,546.7,339.9
        C546.7,344.9,542.6,349,537.6,349 M282.6,330.8h245.5c-4.7-63.6-57.9-113.9-122.7-113.9S287.3,267.1,282.6,330.8"/>
      <path d="M472.1,349H338.6c-5,0-9.1-4.1-9.1-9.1c0-41.8,34-75.9,75.9-75.9s75.9,34,75.9,75.9
        C481.2,344.9,477.1,349,472.1,349 M348.5,330.8h113.8c-4.4-27.4-28.2-48.5-56.9-48.5C376.7,282.3,352.9,303.3,348.5,330.8"/>
      <path d="M259,200.7c-4.3,4.5-8.3,9.1-12.2,14c-20-10.7-42.8-16.8-67-16.8c-78.3,0-142,63.7-142,142
        c0,5-4.1,9.1-9.1,9.1c-5,0-9.1-4.1-9.1-9.1c0-88.4,71.9-160.3,160.3-160.3C208.6,179.6,235.6,187.3,259,200.7"/>
      <path d="M230.2,239.2c-3,5.2-5.8,10.6-8.4,16.2c-12.7-6.3-26.9-9.9-42-9.9c-49,0-89.4,37.5-93.9,85.3h33.2
        c-0.4,3-0.7,6-0.7,9.1c0,5,4.1,9.1,9.1,9.1H76.3c-5,0-9.1-4.1-9.1-9.1c0-62.1,50.5-112.7,112.7-112.7
        C197.9,227.2,215,231.6,230.2,239.2"/>
      <path d="M210.3,286.7c-1.7,6.3-3.2,12.7-4.3,19.1c-7.2-5.7-16.4-9-26.3-9c-20.7,0-38,14.6-42.2,34h-18.6
        c4.4-29.6,29.9-52.3,60.7-52.3C190.9,278.5,201.3,281.5,210.3,286.7"/>
      <path d="M365.8,141.7c-6,1.2-11.9,2.6-17.7,4.3c-10.3-50.1-54.9-88-108-88c-43.6,0-81.3,25.4-99.3,62.2
        c-3-5.2-6.6-10.6-10.8-16.2c-0.2-0.3-0.5-0.6-0.7-0.9c22.4-37.9,63.7-63.4,110.8-63.4C301.8,39.7,353.6,83.5,365.8,141.7"/>
      <path d="M323.3,163.9c-5,0.8-9.7-2.5-10.5-7.5c-6.5-39.5-44-66.4-83.5-59.8c-39.5,6.5-66.4,44-59.8,83.5
        c0.8,5-2.5,9.7-7.5,10.5c-5,0.8-9.7-2.5-10.5-7.5c-8.2-49.4,25.4-96.3,74.8-104.5c49.5-8.2,96.3,25.4,104.5,74.8
        C331.6,158.4,328.3,163.1,323.3,163.9"/>
      <path d="M519.8,176.8c-11.8,0-23-4.7-34.3-14.2c-13.5-11.4-20.2-23.8-20.4-38.1c-0.3-16.4,8-34.4,25.5-55.1
        C526,27.3,608.7,1.5,612.2,0.4c3-0.9,6.2-0.3,8.6,1.7c2.4,2,3.6,5.1,3.2,8.2c-0.5,3.6-12,89.6-47.4,131.6
        C556.7,165.4,538.2,176.8,519.8,176.8 M603.4,22.7c-24.7,9.1-75.2,30.2-99,58.4c-14.3,16.9-21.4,31.4-21.2,43
        c0.2,8.8,4.6,16.6,14,24.5c7.9,6.7,15.3,9.9,22.6,9.9c12.5,0,26.9-9.6,42.8-28.4C586.4,101.9,598.7,48.6,603.4,22.7"/>
      <path d="M491.4,164.7c-2.1,0-4.2-0.7-5.9-2.1c-3.9-3.2-4.3-9-1.1-12.9l86.3-102.3c3.2-3.8,9-4.3,12.9-1.1
        c3.9,3.3,4.3,9,1.1,12.9l-86.3,102.3C496.6,163.6,494,164.7,491.4,164.7"/>
      <path d="M422.6,138.8c-25.3,0-46-20.6-46-46c0-25.3,20.6-46,46-46c25.3,0,46,20.6,46,46
        C468.6,118.1,448,138.8,422.6,138.8 M422.6,65.1c-15.3,0-27.7,12.4-27.7,27.7c0,15.3,12.4,27.7,27.7,27.7
        c15.3,0,27.7-12.4,27.7-27.7C450.4,77.5,437.9,65.1,422.6,65.1"/>
      <path d="M240.1,194.9c-25.3,0-46-20.6-46-46s20.6-46,46-46c25.3,0,46,20.6,46,46S265.4,194.9,240.1,194.9 M240.1,121.2
        c-15.3,0-27.7,12.4-27.7,27.7c0,15.3,12.4,27.7,27.7,27.7c15.3,0,27.7-12.4,27.7-27.7C267.8,133.7,255.4,121.2,240.1,121.2"/>
      <path d="M152,150.6c-1.2-9.4-4.8-19.5-11.2-30.4c-3-5.2-6.6-10.6-10.8-16.2c-0.2-0.3-0.5-0.6-0.7-0.9
        C95.9,59.7,15.9,29.6,12.5,28.3c-2.9-1.1-6.2-0.6-8.7,1.3c-2.4,1.8-3.8,4.8-3.6,7.9C0.4,41.1,7,127.6,40,171.5
        C56.1,193.1,72,205.4,88,208.7c3,0.7,6.1,1,9.2,1c10.5,0,20.7-3.8,31.3-11.5c0.4-0.2,0.9-0.5,1.3-0.9c5.7-4.3,10.3-8.8,13.8-13.6
        c3-4.1,5.2-8.4,6.8-13v-0.1c1-3.3,1.8-6.8,2-10.3C152.6,157.3,152.4,154,152,150.6 M54.6,160.6C32.5,131.1,23.2,77.2,20,51.1
        c24.2,10.5,73.4,34.4,95.5,63.9c1.8,2.3,3.3,4.6,4.8,6.8c5.8,8.6,9.8,16.5,12,23.5c1.6,5,2.2,9.7,1.9,13.9
        c-0.5,6.4-3.2,12.2-8.5,17.6c-1.9,2.1-4.2,4-6.9,6c-2.7,2-5.2,3.7-7.7,4.9c-4.9,2.6-9.4,3.8-13.9,3.8
        C84.2,191.5,70,181.1,54.6,160.6"/>
      <path d="M124.3,199.2c-2.8,0-5.5-1.3-7.3-3.7L36.7,88.5c-3-4-2.2-9.7,1.8-12.8c4-3,9.8-2.2,12.8,1.8l80.3,107
        c3,4,2.2,9.7-1.8,12.8C128.1,198.6,126.2,199.2,124.3,199.2"/>
    </g>
  </symbol>
  <symbol width="100%" height="100%" viewBox="0 0 601.2 592" id='icon-board'>
    <g>
      <path d="M459.5,193.9c-1.9,0-3.9-0.6-5.5-1.8C359.8,121,330.9,15.9,329.7,11.5c-1.1-4.2,0.9-8.6,4.8-10.5
        c3.9-1.9,8.6-0.8,11.3,2.6c58.6,75.8,166,146.1,171.2,149.5c2.9,1.8,4.5,5.1,4.2,8.5c-0.4,3.8-3,6.9-6.6,7.9
        c-1,0.3-1.9,0.6-2.9,0.9l-48.2,22.7C462.2,193.6,460.9,193.9,459.5,193.9 M365.5,53.6c16.6,34.7,46.2,82.3,95.1,120.5l32.4-15.3
        C467.5,141.3,411.8,100.9,365.5,53.6"/>
      <path d="M570.7,308.5c-8,0-14.3-5.6-18.9-16.6c-2-4.9-3.1-9.8-4.1-14.5c-1-4.8-2-9.3-3.9-13.1
        c-4.7-9.2-14.1-16.6-22.4-23.2c-5.4-4.3-11.3-7.6-17-10.9c-9.5-5.4-19.3-10.9-26.8-20.8c-4.5-5.9-12.2-20.1-9.5-31.7
        c1.2-5.1,4.4-9.1,8.9-11.2l27.5-12.9c2.3-1.1,5-1.2,7.4-0.1c20.8,8.8,33.3,25.8,45.3,42.2c4,5.5,8.2,11.2,12.5,16.3
        c2.9,3.5,6.2,6.7,9.8,10.2c12,11.7,25.5,25,20.8,47.5C598.1,279.8,588.1,308.5,570.7,308.5 M485.7,182.6c-0.2,2.7,1.9,10,6.3,15.8
        c5.2,6.8,12.6,11,21.3,15.9c6.3,3.6,12.9,7.3,19.4,12.4c9.3,7.3,20.9,16.5,27.4,29.2c3,5.9,4.3,12.1,5.5,17.6
        c0.9,4.1,1.7,8,3.1,11.3c1,2.4,1.9,3.8,2.5,4.7c3.6-3.2,9.3-14.3,11.2-23.6c2.6-12.1-3.9-19.2-15.7-30.7
        c-3.7-3.6-7.4-7.3-10.9-11.5c-4.7-5.6-9.1-11.5-13.3-17.3c-10.2-14-20-27.2-34.1-34.6L485.7,182.6z"/>
      <path d="M344,592c-15,0-29.1-5.8-39.7-16.4l-261-261c-21.9-21.9-21.9-57.5,0-79.4L71.5,207c8.8-8.8,13.4-21.4,11-30.6
        c-1.6-6.1-6.1-10.5-13.6-13c-18.8,1.7-37-5-50.3-18.3C6.6,133.1,0,117.2,0,100.3c0-16.9,6.6-32.9,18.6-44.8
        c12-12,27.9-18.6,44.9-18.6s32.9,6.6,44.9,18.6c13.3,13.3,19.9,31.4,18.3,49.9c3.2,9.6,9.3,14.4,18.3,14.4
        c8.5,0,18.2-4.5,25.4-11.6l28-28C208.9,69.6,223,63.7,238,63.7c15,0,29.1,5.8,39.7,16.4l261,261c21.9,21.9,21.9,57.5,0,79.4
        L383.7,575.6C373.1,586.2,359,592,344,592 M69.8,145c0.9,0,1.7,0.1,2.5,0.4c14.6,4.2,24.5,13.6,27.8,26.5
        c4,15.6-2.2,34.5-15.8,48.1l-28.2,28.2c-14.8,14.8-14.8,38.8,0,53.6l261,261c7.1,7.1,16.7,11.1,26.8,11.1
        c10.1,0,19.6-3.9,26.8-11.1l155.1-155.1c14.8-14.8,14.8-38.8,0-53.6l-261-261C257.6,85.9,248.1,82,238,82
        c-10.1,0-19.6,3.9-26.8,11.1l-28,28c-10.6,10.6-25,17-38.3,17c-17.6,0-31.1-10.9-36.4-29.3c-0.3-1.1-0.4-2.4-0.3-3.5
        c1.6-13.7-3.1-27.1-12.9-36.9c-8.5-8.5-19.9-13.2-32-13.2c-12.1,0-23.4,4.7-32,13.2c-8.5,8.5-13.2,19.9-13.2,31.9
        c0,12.1,4.7,23.4,13.2,32c9.8,9.8,23.5,14.5,37.2,12.9C69.1,145,69.5,145,69.8,145"/>
      <path d="M63.4,137.1c-9.8,0-19-3.8-26-10.8c-14.4-14.4-14.4-37.7,0-52c7-7,16.2-10.8,26-10.8s19.1,3.8,26,10.8
        c7,7,10.8,16.2,10.8,26c0,9.8-3.9,19-10.8,26C82.5,133.2,73.2,137.1,63.4,137.1 M63.4,81.7c-5,0-9.6,1.9-13.1,5.4
        c-7.2,7.2-7.2,19,0,26.2c7,7,19.2,7,26.2,0c3.5-3.5,5.4-8.2,5.5-13.1c0-4.9-1.9-9.6-5.4-13.1C73,83.7,68.4,81.7,63.4,81.7"/>
      <path d="M300.2,424.2c-60.6,0-109.8-43.7-109.8-97.4c0-49.7,43.1-81.8,109.8-81.8S410,277.1,410,326.8
        C410,380.5,360.7,424.2,300.2,424.2 M300.2,263.2c-44.3,0-91.6,16.7-91.6,63.6c0,43.6,41.1,79.2,91.6,79.2
        c50.5,0,91.6-35.5,91.6-79.2C391.8,279.9,344.5,263.2,300.2,263.2"/>
      <path d="M249.6,329.1c-0.9,0-1.7-0.1-2.5-0.4c-3.4-1-5.9-3.8-6.5-7.2c-3.5-20.7,15.1-48.3,26.4-57.9
        c10.6-9,20.3-16.4,20.7-16.7c3.1-2.4,7.4-2.5,10.6-0.3c3.2,2.2,4.8,6.2,3.8,9.9c-6.9,25.9-41.7,65.2-45.6,69.6
        C254.6,328,252.1,329.1,249.6,329.1"/>
      <path d="M260.3,254.7c-23.8,0-48-3.5-49-3.7c-3.5-0.5-6.3-3-7.4-6.3c-1-3.3-0.1-7,2.5-9.4c12-11.2,33.7-12.4,42.5-12.4
        c7.7,0,14.9,0.9,20.3,2.4c13.3,3.8,24.9,7.8,25.3,8c3.7,1.3,6.2,4.8,6.1,8.7c0,3.9-2.5,7.4-6.2,8.6
        C286.3,253.3,275.2,254.7,260.3,254.7"/>
      <path d="M340.9,254.7c-23.8,0-48-3.5-49-3.7c-3.5-0.5-6.3-3-7.4-6.3c-1-3.3-0.1-7,2.5-9.4c12-11.2,33.7-12.4,42.5-12.4
        c7.7,0,14.9,0.9,20.3,2.4c13.3,3.8,24.9,7.8,25.3,8c3.7,1.3,6.2,4.8,6.1,8.7c0,3.9-2.5,7.4-6.2,8.6
        C366.9,253.3,355.7,254.7,340.9,254.7"/>
      <path d="M356,305.3c-0.5,0-1.1,0-1.6-0.1c-26.4-4.7-68.5-36.1-73.2-39.6c-2.8-2.1-4.1-5.6-3.4-9.1
        c0.7-3.4,3.3-6.2,6.7-7c2.6-0.7,5.4-1,8.4-1c18.9,0,42.1,13,51.5,22.4c8.2,8.1,15.2,15.7,17.6,18.3c2,1.7,3.3,4.2,3.3,7
        c0,5-4.1,9.1-9.1,9.1C356,305.3,356,305.3,356,305.3"/>
    </g>
  </symbol>
  <symbol width="100%" height="100%" viewBox="0 0 38 50" id='icon-book'>
    <g fill="none" stroke="#242424" stroke-width="2" stroke-linecap="round" stroke-linejoin="round" stroke-miterlimit="10">
      <path d="M7,16c-3.3,0-6-2.7-6-6c0-3.3,2.7-6,6-6"/>
      <path d="M7,16h25c2.8,0,5,2.2,5,5v23c0,2.8-2.2,5-5,5H7c-3.3,0-6-2.7-6-6V10"/>
      <path d="M27,4h5c2.8,0,5,2.2,5,5v5.8"/>
      <line x1="7" y1="4" x2="22" y2="4"/>
      <line x1="18" y1="8" x2="31.3" y2="8"/>
      <line x1="8.3" y1="8" x2="13" y2="8"/>
      <line x1="8.3" y1="12" x2="31.3" y2="12"/>
      <path d="M24.5,1C23.1,1,22,2.1,22,3.5V8h5V3.5C27,2.1,25.9,1,24.5,1z"/>
      <path d="M15.5,5C14.1,5,13,6.1,13,7.5V12h5V7.5C18,6.1,16.9,5,15.5,5z"/>
      <path d="M22.9,23.3C22.2,22,20.8,21,19.1,21c-1.7,0-3.1,1-3.8,2.3c0,0-0.1,0-0.1,0c-2.3,0-4.2,1.7-4.2,3.7c0,1.9,1.6,3.4,3.6,3.7l0.5,4.3c0,0.5,0.5,1,1,1H22c0.5,0,0.9-0.4,1-1l0.5-4.4c2-0.3,3.4-1.8,3.4-3.6C27,25,25.2,23.4,22.9,23.3z"/>
      <line x1="16" y1="39" x2="22" y2="39"/>
      <line x1="17" y1="42" x2="21" y2="42"/>
    </g>
  </symbol>
  <symbol width="100%" height="100%" viewBox="0 0 555.2 626.2" id='icon-notebook'>
    <g>
      <path d="M39.4,386h18.2V247.8H39.4V386z M527.3,0H67.3C51.9,0,39.4,12.5,39.4,27.9v65.1h18.2V27.9
        c0-5.4,4.3-9.7,9.7-9.7h459.9c5.4,0,9.7,4.3,9.7,9.7v570.4c0,5.3-4.3,9.7-9.7,9.7H67.3c-5.4,0-9.7-4.4-9.7-9.7v-57.5H39.4v57.5
        c0,15.4,12.5,27.9,27.9,27.9h459.9c15.4,0,27.9-12.5,27.9-27.9V27.9C555.2,12.5,542.7,0,527.3,0 M57.7,394.3H39.4v138.3h18.2V394.3
        z M39.4,239.5h18.2V101.3H39.4V239.5z"/>
      <path d="M131.3,514.3H9.1c-5,0-9.1,4.1-9.1,9.1v26.5c0,5,4.1,9.1,9.1,9.1h122.1c5,0,9.1-4.1,9.1-9.1v-26.5
        C140.4,518.4,136.3,514.3,131.3,514.3 M122.1,540.8H18.3v-8.2h103.9V540.8z"/>
      <path d="M131.3,367.8H9.1c-5,0-9.1,4.1-9.1,9.1v26.5c0,5,4.1,9.1,9.1,9.1h122.1c5,0,9.1-4.1,9.1-9.1v-26.5
        C140.4,371.9,136.3,367.8,131.3,367.8 M122.1,394.3H18.3V386h103.9V394.3z"/>
      <path d="M131.3,221.3H9.1c-5,0-9.1,4.1-9.1,9.1v26.5c0,5,4.1,9.1,9.1,9.1h122.1c5,0,9.1-4.1,9.1-9.1v-26.5
        C140.4,225.4,136.3,221.3,131.3,221.3 M122.1,247.8H18.3v-8.3h103.9V247.8z"/>
      <path d="M131.3,74.8H9.1c-5,0-9.1,4.1-9.1,9.1v26.5c0,5,4.1,9.1,9.1,9.1h122.1c5,0,9.1-4.1,9.1-9.1V83.9
        C140.4,78.9,136.3,74.8,131.3,74.8 M122.1,101.3H18.3v-8.2h103.9V101.3z"/>
      <path d="M493.2,118.4H188.6c-5,0-9.1-4.1-9.1-9.1c0-5,4.1-9.1,9.1-9.1h304.6c5,0,9.1,4.1,9.1,9.1
        C502.4,114.3,498.3,118.4,493.2,118.4"/>
      <path d="M493.2,254.3H188.6c-5,0-9.1-4.1-9.1-9.1c0-5,4.1-9.1,9.1-9.1h304.6c5,0,9.1,4.1,9.1,9.1
        C502.4,250.2,498.3,254.3,493.2,254.3"/>
      <path d="M493.2,390.2H188.6c-5,0-9.1-4.1-9.1-9.1s4.1-9.1,9.1-9.1h304.6c5,0,9.1,4.1,9.1,9.1S498.3,390.2,493.2,390.2"
        />
      <path d="M493.2,526.1H188.6c-5,0-9.1-4.1-9.1-9.1c0-5,4.1-9.1,9.1-9.1h304.6c5,0,9.1,4.1,9.1,9.1
        C502.4,522,498.3,526.1,493.2,526.1"/>
      <path d="M111,42c-22.4,0-41.8,13.4-50.4,32.8c-1.2,2.6-2.2,5.3-2.9,8.2c-0.9,3.2-1.5,6.6-1.7,10.1h18.3
        c0.7-6.8,3.3-13.1,7.4-18.2C88.4,66,99,60.3,111,60.3c20.3,0,36.9,16.5,36.9,36.9c0,20.4-16.6,36.9-36.9,36.9
        c-11.9,0-22.6-5.7-29.3-14.5c-4-5.2-6.7-11.4-7.4-18.2H56c0.2,3.5,0.8,6.8,1.7,10c0.7,2.9,1.7,5.6,2.9,8.2
        c8.5,19.3,27.9,32.8,50.4,32.8c30.4,0,55.2-24.7,55.2-55.2C166.1,66.7,141.4,42,111,42"/>
      <path d="M111,188.5c-22.4,0-41.8,13.5-50.4,32.8c-1.2,2.6-2.2,5.4-2.9,8.2c-0.9,3.2-1.5,6.6-1.7,10h18.3
        c0.7-6.8,3.4-13.1,7.4-18.2c6.7-8.8,17.3-14.5,29.3-14.5c20.3,0,36.9,16.5,36.9,36.9c0,20.3-16.6,36.9-36.9,36.9
        c-11.9,0-22.6-5.7-29.3-14.5c-4-5.2-6.7-11.4-7.4-18.2H56c0.2,3.5,0.8,6.8,1.7,10c0.7,2.9,1.7,5.6,2.9,8.2
        c8.5,19.3,27.9,32.8,50.4,32.8c30.4,0,55.2-24.8,55.2-55.2C166.1,213.3,141.4,188.5,111,188.5"/>
      <path d="M111,335c-22.4,0-41.8,13.5-50.4,32.8c-1.2,2.6-2.2,5.4-2.9,8.2c-0.9,3.2-1.5,6.6-1.7,10h18.3
        c0.7-6.8,3.4-13.1,7.4-18.2c6.7-8.8,17.3-14.5,29.3-14.5c20.3,0,36.9,16.6,36.9,36.9c0,20.4-16.6,36.9-36.9,36.9
        c-11.9,0-22.6-5.7-29.3-14.5c-4-5.2-6.7-11.4-7.4-18.2H56c0.2,3.5,0.8,6.8,1.7,10c0.7,2.9,1.7,5.6,2.9,8.2
        c8.5,19.3,27.9,32.8,50.4,32.8c30.4,0,55.2-24.8,55.2-55.2S141.4,335,111,335"/>
      <path d="M111,481.5c-22.5,0-41.8,13.5-50.4,32.8c-1.2,2.6-2.1,5.4-2.9,8.2c-0.9,3.2-1.5,6.6-1.7,10.1h18.3
        c0.7-6.8,3.3-13.1,7.4-18.2c6.7-8.8,17.3-14.5,29.3-14.5c20.3,0,36.9,16.5,36.9,36.9c0,20.4-16.6,36.9-36.9,36.9
        c-11.9,0-22.6-5.7-29.3-14.5c-4-5.2-6.7-11.4-7.4-18.2H56c0.2,3.5,0.8,6.8,1.7,10.1c0.7,2.8,1.7,5.5,2.9,8.2
        c8.5,19.3,27.9,32.8,50.4,32.8c30.4,0,55.2-24.7,55.2-55.2C166.1,506.2,141.4,481.5,111,481.5"/>
    </g>
  </symbol>
  <symbol width="100%" height="100%" viewBox="0 0 50 47.86" id='icon-printer'>
    <polygon points="9.46 0 9.46 5.9 11.2 5.9 11.2 1.74 38.8 1.74 38.8 5.9 40.54 5.9 40.54 0 9.46 0" fill="#242424"/>
    <path d="M4.21,31.74H9.38V47.86H31.77L40.62,39V31.74H45.8A4.21,4.21,0,0,0,50,27.53V12.72a4.21,4.21,0,0,0-4.21-4.2H4.21A4.21,4.21,0,0,0,0,12.72V27.53a4.21,4.21,0,0,0,4.2,4.2M32.28,44.89V39.53h5.37Zm6.6-7.1H30.54v8.33H11.12V25.51H38.88V37.79ZM1.74,12.72a2.47,2.47,0,0,1,2.47-2.47H45.8a2.47,2.47,0,0,1,2.47,2.47V27.53A2.47,2.47,0,0,1,45.8,30H40.62V25.51H43V23.77H7v1.74H9.38V30H4.21a2.47,2.47,0,0,1-2.47-2.47V12.72Z" fill="#242424"/>
    <g stroke="#242424" stroke-linecap="round" stroke-linejoin="round" stroke-width="2px">
      <line x1="17" y1="30.08" x2="35" y2="30.08"/>
      <line x1="17" y1="34.08" x2="33" y2="34.08"/>
    </g>
  </symbol>
</defs>
</svg>