<svg id="Режим_изоляции" data-name="Режим изоляции" xmlns="http://www.w3.org/2000/svg" viewBox="0 0 246.8 336.19"><defs><style>.cls-1{fill:#ffdd0c;}</style></defs><title>logo</title><path class="cls-1" d="M496.77,570.91a7.17,7.17,0,0,1-7,7.28H401.89a7.16,7.16,0,0,1-7-7.28v-1.21a7.17,7.17,0,0,1,7-7.29h87.84a7.17,7.17,0,0,1,7,7.29v1.21Z" transform="translate(-322.41 -314.89)"/><path class="cls-1" d="M493.32,595.19a7.17,7.17,0,0,1-7,7.29H405.33a7.17,7.17,0,0,1-7-7.29V594a7.17,7.17,0,0,1,7-7.29h80.95a7.17,7.17,0,0,1,7,7.29v1.21Z" transform="translate(-322.41 -314.89)"/><path class="cls-1" d="M489.87,619.48a7.17,7.17,0,0,1-7,7.29H408.78a7.17,7.17,0,0,1-7-7.29v-1.21a7.16,7.16,0,0,1,7-7.29h74.05a7.16,7.16,0,0,1,7,7.29v1.21Z" transform="translate(-322.41 -314.89)"/><path class="cls-1" d="M457.62,635.29H445.86v0H433.47a7.17,7.17,0,0,0-7,7.29v1.21a7.17,7.17,0,0,0,7,7.29h12.06v0h12.09a7.17,7.17,0,0,0,7-7.29v-1.21A7.16,7.16,0,0,0,457.62,635.29Z" transform="translate(-322.41 -314.89)"/><path class="cls-1" d="M505.4,352.12a64.61,64.61,0,0,0-117.05,0c-0.41,0-.82-0.07-1.23-0.07-35.73,0-64.71,26.49-64.71,59.15,0,29.85,24.23,54.47,55.67,58.49l8.43,69.11c0.54,8.6,7.36,15.56,15.23,15.56h90.61c7.87,0,14.68-7,15.21-15.56l8.49-69.45c30.22-5,53.16-29.1,53.16-58.15C569.21,378.84,540.72,352.57,505.4,352.12ZM379.57,365.71a54.66,54.66,0,0,0-44,38.4,2.69,2.69,0,0,1-3.08,2,2.6,2.6,0,0,1-1.61-3.4,59.55,59.55,0,0,1,47.94-41.83,2.6,2.6,0,0,1,3.15,2.06A2.69,2.69,0,0,1,379.57,365.71Zm42.32-31.13a42.85,42.85,0,0,0-19.54,20.14,2.63,2.63,0,0,1-3.27,1.42,2.52,2.52,0,0,1-1.15-3.49,47.74,47.74,0,0,1,21.77-22.44,2.52,2.52,0,0,1,3.52,1A2.64,2.64,0,0,1,421.88,334.59Zm8.21-5a2.59,2.59,0,1,1,2.59-2.59A2.59,2.59,0,0,1,430.09,329.54Z" transform="translate(-322.41 -314.89)"/></svg>