<?xml version="1.0" encoding="utf-8"?>
<svg version="1.1" id="Слой_1" xmlns="http://www.w3.org/2000/svg" xmlns:xlink="http://www.w3.org/1999/xlink" x="0px" y="0px"
	 viewBox="0 0 555.2 626.2" style="enable-background:new 0 0 555.2 626.2;" xml:space="preserve" fill="#242424">
<g>
	<path d="M39.4,386h18.2V247.8H39.4V386z M527.3,0H67.3C51.9,0,39.4,12.5,39.4,27.9v65.1h18.2V27.9
		c0-5.4,4.3-9.7,9.7-9.7h459.9c5.4,0,9.7,4.3,9.7,9.7v570.4c0,5.3-4.3,9.7-9.7,9.7H67.3c-5.4,0-9.7-4.4-9.7-9.7v-57.5H39.4v57.5
		c0,15.4,12.5,27.9,27.9,27.9h459.9c15.4,0,27.9-12.5,27.9-27.9V27.9C555.2,12.5,542.7,0,527.3,0 M57.7,394.3H39.4v138.3h18.2V394.3
		z M39.4,239.5h18.2V101.3H39.4V239.5z"/>
	<path d="M131.3,514.3H9.1c-5,0-9.1,4.1-9.1,9.1v26.5c0,5,4.1,9.1,9.1,9.1h122.1c5,0,9.1-4.1,9.1-9.1v-26.5
		C140.4,518.4,136.3,514.3,131.3,514.3 M122.1,540.8H18.3v-8.2h103.9V540.8z"/>
	<path d="M131.3,367.8H9.1c-5,0-9.1,4.1-9.1,9.1v26.5c0,5,4.1,9.1,9.1,9.1h122.1c5,0,9.1-4.1,9.1-9.1v-26.5
		C140.4,371.9,136.3,367.8,131.3,367.8 M122.1,394.3H18.3V386h103.9V394.3z"/>
	<path d="M131.3,221.3H9.1c-5,0-9.1,4.1-9.1,9.1v26.5c0,5,4.1,9.1,9.1,9.1h122.1c5,0,9.1-4.1,9.1-9.1v-26.5
		C140.4,225.4,136.3,221.3,131.3,221.3 M122.1,247.8H18.3v-8.3h103.9V247.8z"/>
	<path d="M131.3,74.8H9.1c-5,0-9.1,4.1-9.1,9.1v26.5c0,5,4.1,9.1,9.1,9.1h122.1c5,0,9.1-4.1,9.1-9.1V83.9
		C140.4,78.9,136.3,74.8,131.3,74.8 M122.1,101.3H18.3v-8.2h103.9V101.3z"/>
	<path d="M493.2,118.4H188.6c-5,0-9.1-4.1-9.1-9.1c0-5,4.1-9.1,9.1-9.1h304.6c5,0,9.1,4.1,9.1,9.1
		C502.4,114.3,498.3,118.4,493.2,118.4"/>
	<path d="M493.2,254.3H188.6c-5,0-9.1-4.1-9.1-9.1c0-5,4.1-9.1,9.1-9.1h304.6c5,0,9.1,4.1,9.1,9.1
		C502.4,250.2,498.3,254.3,493.2,254.3"/>
	<path d="M493.2,390.2H188.6c-5,0-9.1-4.1-9.1-9.1s4.1-9.1,9.1-9.1h304.6c5,0,9.1,4.1,9.1,9.1S498.3,390.2,493.2,390.2"
		/>
	<path d="M493.2,526.1H188.6c-5,0-9.1-4.1-9.1-9.1c0-5,4.1-9.1,9.1-9.1h304.6c5,0,9.1,4.1,9.1,9.1
		C502.4,522,498.3,526.1,493.2,526.1"/>
	<path d="M111,42c-22.4,0-41.8,13.4-50.4,32.8c-1.2,2.6-2.2,5.3-2.9,8.2c-0.9,3.2-1.5,6.6-1.7,10.1h18.3
		c0.7-6.8,3.3-13.1,7.4-18.2C88.4,66,99,60.3,111,60.3c20.3,0,36.9,16.5,36.9,36.9c0,20.4-16.6,36.9-36.9,36.9
		c-11.9,0-22.6-5.7-29.3-14.5c-4-5.2-6.7-11.4-7.4-18.2H56c0.2,3.5,0.8,6.8,1.7,10c0.7,2.9,1.7,5.6,2.9,8.2
		c8.5,19.3,27.9,32.8,50.4,32.8c30.4,0,55.2-24.7,55.2-55.2C166.1,66.7,141.4,42,111,42"/>
	<path d="M111,188.5c-22.4,0-41.8,13.5-50.4,32.8c-1.2,2.6-2.2,5.4-2.9,8.2c-0.9,3.2-1.5,6.6-1.7,10h18.3
		c0.7-6.8,3.4-13.1,7.4-18.2c6.7-8.8,17.3-14.5,29.3-14.5c20.3,0,36.9,16.5,36.9,36.9c0,20.3-16.6,36.9-36.9,36.9
		c-11.9,0-22.6-5.7-29.3-14.5c-4-5.2-6.7-11.4-7.4-18.2H56c0.2,3.5,0.8,6.8,1.7,10c0.7,2.9,1.7,5.6,2.9,8.2
		c8.5,19.3,27.9,32.8,50.4,32.8c30.4,0,55.2-24.8,55.2-55.2C166.1,213.3,141.4,188.5,111,188.5"/>
	<path d="M111,335c-22.4,0-41.8,13.5-50.4,32.8c-1.2,2.6-2.2,5.4-2.9,8.2c-0.9,3.2-1.5,6.6-1.7,10h18.3
		c0.7-6.8,3.4-13.1,7.4-18.2c6.7-8.8,17.3-14.5,29.3-14.5c20.3,0,36.9,16.6,36.9,36.9c0,20.4-16.6,36.9-36.9,36.9
		c-11.9,0-22.6-5.7-29.3-14.5c-4-5.2-6.7-11.4-7.4-18.2H56c0.2,3.5,0.8,6.8,1.7,10c0.7,2.9,1.7,5.6,2.9,8.2
		c8.5,19.3,27.9,32.8,50.4,32.8c30.4,0,55.2-24.8,55.2-55.2S141.4,335,111,335"/>
	<path d="M111,481.5c-22.5,0-41.8,13.5-50.4,32.8c-1.2,2.6-2.1,5.4-2.9,8.2c-0.9,3.2-1.5,6.6-1.7,10.1h18.3
		c0.7-6.8,3.3-13.1,7.4-18.2c6.7-8.8,17.3-14.5,29.3-14.5c20.3,0,36.9,16.5,36.9,36.9c0,20.4-16.6,36.9-36.9,36.9
		c-11.9,0-22.6-5.7-29.3-14.5c-4-5.2-6.7-11.4-7.4-18.2H56c0.2,3.5,0.8,6.8,1.7,10.1c0.7,2.8,1.7,5.5,2.9,8.2
		c8.5,19.3,27.9,32.8,50.4,32.8c30.4,0,55.2-24.7,55.2-55.2C166.1,506.2,141.4,481.5,111,481.5"/>
</g>
</svg>
