<?xml version="1.0" encoding="utf-8"?>
<svg version="1.1" id="Слой_1" xmlns="http://www.w3.org/2000/svg" xmlns:xlink="http://www.w3.org/1999/xlink" x="0px" y="0px"
	 viewBox="0 0 624 486" style="enable-background:new 0 0 624 486;" xml:space="preserve" fill="#242424">
<g>
	<path d="M474,448.5H149.8c-1.9,0-3.7-0.6-5.3-1.7L3.9,347.3c-3.2-2.3-4.6-6.4-3.4-10.2c1.2-3.8,4.7-6.4,8.7-6.4h605.6
		c4,0,7.5,2.6,8.7,6.4c1.2,3.8-0.2,7.9-3.4,10.2l-140.7,99.5C477.8,447.9,475.9,448.5,474,448.5 M152.7,430.2h318.4L586,349H37.8
		L152.7,430.2z"/>
	<path d="M472.1,486H149.8c-5,0-9.1-4.1-9.1-9.1v-37.5c0-5,4.1-9.1,9.1-9.1h322.3c5,0,9.1,4.1,9.1,9.1v37.5
		C481.2,481.9,477.1,486,472.1,486 M158.9,467.7H463v-19.3H158.9V467.7z"/>
	<path d="M607.5,339.9c0,5-4.1,9.1-9.1,9.1c-5,0-9.1-4.1-9.1-9.1c0-101.4-82.5-183.9-183.9-183.9
		c-12.7,0-25.1,1.3-37,3.7c-6.1,1.3-12.1,2.9-18,4.7c-29,9.1-54.9,25.2-75.8,46.4c-4.3,4.3-8.3,8.9-12.2,13.7
		c-6.1,7.6-11.7,15.7-16.5,24.2c-3.1,5.3-5.9,10.8-8.4,16.5c-4.9,10.9-8.8,22.5-11.4,34.5c-2.3,9.9-3.7,20-4.2,30.4v0.1
		c-0.1,0.2-0.1,0.4-0.1,0.7c-0.2,3-0.2,6.1-0.2,9.1c0,5-4.1,9.1-9.1,9.1c-5,0-9.1-4.1-9.1-9.1c0-3,0.1-6.1,0.2-9.1
		c0.4-8.5,1.3-16.8,2.7-25c1.1-6.4,2.6-12.8,4.3-19.1c2.9-10.8,6.8-21.3,11.4-31.3c2.6-5.5,5.4-10.9,8.4-16.2
		c4.9-8.6,10.5-16.8,16.6-24.5c3.8-4.9,7.9-9.5,12.2-14c15.8-16.6,34.4-30.6,55-41.1c5.4-2.7,10.9-5.2,16.5-7.5
		c5.7-2.3,11.6-4.3,17.6-6.1c5.8-1.7,11.7-3.2,17.7-4.3c12.8-2.6,26-3.9,39.5-3.9C516.8,137.8,607.5,228.4,607.5,339.9"/>
	<path d="M537.6,349H273.2c-5,0-9.1-4.1-9.1-9.1c0-77.9,63.4-141.3,141.3-141.3S546.7,262,546.7,339.9
		C546.7,344.9,542.6,349,537.6,349 M282.6,330.8h245.5c-4.7-63.6-57.9-113.9-122.7-113.9S287.3,267.1,282.6,330.8"/>
	<path d="M472.1,349H338.6c-5,0-9.1-4.1-9.1-9.1c0-41.8,34-75.9,75.9-75.9s75.9,34,75.9,75.9
		C481.2,344.9,477.1,349,472.1,349 M348.5,330.8h113.8c-4.4-27.4-28.2-48.5-56.9-48.5C376.7,282.3,352.9,303.3,348.5,330.8"/>
	<path d="M259,200.7c-4.3,4.5-8.3,9.1-12.2,14c-20-10.7-42.8-16.8-67-16.8c-78.3,0-142,63.7-142,142
		c0,5-4.1,9.1-9.1,9.1c-5,0-9.1-4.1-9.1-9.1c0-88.4,71.9-160.3,160.3-160.3C208.6,179.6,235.6,187.3,259,200.7"/>
	<path d="M230.2,239.2c-3,5.2-5.8,10.6-8.4,16.2c-12.7-6.3-26.9-9.9-42-9.9c-49,0-89.4,37.5-93.9,85.3h33.2
		c-0.4,3-0.7,6-0.7,9.1c0,5,4.1,9.1,9.1,9.1H76.3c-5,0-9.1-4.1-9.1-9.1c0-62.1,50.5-112.7,112.7-112.7
		C197.9,227.2,215,231.6,230.2,239.2"/>
	<path d="M210.3,286.7c-1.7,6.3-3.2,12.7-4.3,19.1c-7.2-5.7-16.4-9-26.3-9c-20.7,0-38,14.6-42.2,34h-18.6
		c4.4-29.6,29.9-52.3,60.7-52.3C190.9,278.5,201.3,281.5,210.3,286.7"/>
	<path d="M365.8,141.7c-6,1.2-11.9,2.6-17.7,4.3c-10.3-50.1-54.9-88-108-88c-43.6,0-81.3,25.4-99.3,62.2
		c-3-5.2-6.6-10.6-10.8-16.2c-0.2-0.3-0.5-0.6-0.7-0.9c22.4-37.9,63.7-63.4,110.8-63.4C301.8,39.7,353.6,83.5,365.8,141.7"/>
	<path d="M323.3,163.9c-5,0.8-9.7-2.5-10.5-7.5c-6.5-39.5-44-66.4-83.5-59.8c-39.5,6.5-66.4,44-59.8,83.5
		c0.8,5-2.5,9.7-7.5,10.5c-5,0.8-9.7-2.5-10.5-7.5c-8.2-49.4,25.4-96.3,74.8-104.5c49.5-8.2,96.3,25.4,104.5,74.8
		C331.6,158.4,328.3,163.1,323.3,163.9"/>
	<path d="M519.8,176.8c-11.8,0-23-4.7-34.3-14.2c-13.5-11.4-20.2-23.8-20.4-38.1c-0.3-16.4,8-34.4,25.5-55.1
		C526,27.3,608.7,1.5,612.2,0.4c3-0.9,6.2-0.3,8.6,1.7c2.4,2,3.6,5.1,3.2,8.2c-0.5,3.6-12,89.6-47.4,131.6
		C556.7,165.4,538.2,176.8,519.8,176.8 M603.4,22.7c-24.7,9.1-75.2,30.2-99,58.4c-14.3,16.9-21.4,31.4-21.2,43
		c0.2,8.8,4.6,16.6,14,24.5c7.9,6.7,15.3,9.9,22.6,9.9c12.5,0,26.9-9.6,42.8-28.4C586.4,101.9,598.7,48.6,603.4,22.7"/>
	<path d="M491.4,164.7c-2.1,0-4.2-0.7-5.9-2.1c-3.9-3.2-4.3-9-1.1-12.9l86.3-102.3c3.2-3.8,9-4.3,12.9-1.1
		c3.9,3.3,4.3,9,1.1,12.9l-86.3,102.3C496.6,163.6,494,164.7,491.4,164.7"/>
	<path d="M422.6,138.8c-25.3,0-46-20.6-46-46c0-25.3,20.6-46,46-46c25.3,0,46,20.6,46,46
		C468.6,118.1,448,138.8,422.6,138.8 M422.6,65.1c-15.3,0-27.7,12.4-27.7,27.7c0,15.3,12.4,27.7,27.7,27.7
		c15.3,0,27.7-12.4,27.7-27.7C450.4,77.5,437.9,65.1,422.6,65.1"/>
	<path d="M240.1,194.9c-25.3,0-46-20.6-46-46s20.6-46,46-46c25.3,0,46,20.6,46,46S265.4,194.9,240.1,194.9 M240.1,121.2
		c-15.3,0-27.7,12.4-27.7,27.7c0,15.3,12.4,27.7,27.7,27.7c15.3,0,27.7-12.4,27.7-27.7C267.8,133.7,255.4,121.2,240.1,121.2"/>
	<path d="M152,150.6c-1.2-9.4-4.8-19.5-11.2-30.4c-3-5.2-6.6-10.6-10.8-16.2c-0.2-0.3-0.5-0.6-0.7-0.9
		C95.9,59.7,15.9,29.6,12.5,28.3c-2.9-1.1-6.2-0.6-8.7,1.3c-2.4,1.8-3.8,4.8-3.6,7.9C0.4,41.1,7,127.6,40,171.5
		C56.1,193.1,72,205.4,88,208.7c3,0.7,6.1,1,9.2,1c10.5,0,20.7-3.8,31.3-11.5c0.4-0.2,0.9-0.5,1.3-0.9c5.7-4.3,10.3-8.8,13.8-13.6
		c3-4.1,5.2-8.4,6.8-13v-0.1c1-3.3,1.8-6.8,2-10.3C152.6,157.3,152.4,154,152,150.6 M54.6,160.6C32.5,131.1,23.2,77.2,20,51.1
		c24.2,10.5,73.4,34.4,95.5,63.9c1.8,2.3,3.3,4.6,4.8,6.8c5.8,8.6,9.8,16.5,12,23.5c1.6,5,2.2,9.7,1.9,13.9
		c-0.5,6.4-3.2,12.2-8.5,17.6c-1.9,2.1-4.2,4-6.9,6c-2.7,2-5.2,3.7-7.7,4.9c-4.9,2.6-9.4,3.8-13.9,3.8
		C84.2,191.5,70,181.1,54.6,160.6"/>
	<path d="M124.3,199.2c-2.8,0-5.5-1.3-7.3-3.7L36.7,88.5c-3-4-2.2-9.7,1.8-12.8c4-3,9.8-2.2,12.8,1.8l80.3,107
		c3,4,2.2,9.7-1.8,12.8C128.1,198.6,126.2,199.2,124.3,199.2"/>
</g>
</svg>
