<svg id="Слой_1" data-name="Слой 1" xmlns="http://www.w3.org/2000/svg" xmlns:xlink="http://www.w3.org/1999/xlink" viewBox="0 0 50 47.86">
<polygon points="9.46 0 9.46 5.9 11.2 5.9 11.2 1.74 38.8 1.74 38.8 5.9 40.54 5.9 40.54 0 9.46 0" fill="#242424"/>
<path d="M4.21,31.74H9.38V47.86H31.77L40.62,39V31.74H45.8A4.21,4.21,0,0,0,50,27.53V12.72a4.21,4.21,0,0,0-4.21-4.2H4.21A4.21,4.21,0,0,0,0,12.72V27.53a4.21,4.21,0,0,0,4.2,4.2M32.28,44.89V39.53h5.37Zm6.6-7.1H30.54v8.33H11.12V25.51H38.88V37.79ZM1.74,12.72a2.47,2.47,0,0,1,2.47-2.47H45.8a2.47,2.47,0,0,1,2.47,2.47V27.53A2.47,2.47,0,0,1,45.8,30H40.62V25.51H43V23.77H7v1.74H9.38V30H4.21a2.47,2.47,0,0,1-2.47-2.47V12.72Z" fill="#242424"/>
<g stroke="#242424" stroke-linecap="round" stroke-linejoin="round" stroke-width="2px">
	<line x1="17" y1="30.08" x2="35" y2="30.08"/>
	<line x1="17" y1="34.08" x2="33" y2="34.08"/>
</g>
</svg>